<svg width="22" height="22" viewBox="0 0 22 22" fill="none" xmlns="http://www.w3.org/2000/svg">
<path fill-rule="evenodd" clip-rule="evenodd" d="M21.5 11.0633C21.5 5.26486 16.7984 0.563293 11 0.563293C5.20156 0.563293 0.5 5.26486 0.5 11.0633C0.5 16.3039 4.33906 20.6478 9.35938 21.4363V14.0994H6.69266V11.0633H9.35938V8.75001C9.35938 6.11892 10.9273 4.66439 13.3255 4.66439C14.4744 4.66439 15.6763 4.8697 15.6763 4.8697V7.45392H14.3516C13.048 7.45392 12.6402 8.26298 12.6402 9.09454V11.0633H15.552L15.087 14.0994H12.6406V21.4372C17.6609 20.6492 21.5 16.3053 21.5 11.0633V11.0633Z" fill="white"/>
</svg>
